{
    "accessors": [
        {
            "bufferView": 4,
            "byteOffset": 0,
            "componentType": 5126,
            "count": 186,
            "max": [
                2.3749988079071045,
                2.374998092651367,
                13.954277992248535
            ],
            "min": [
                -2.3749988079071045,
                -2.375001907348633,
                10.454277038574219
            ],
            "name": "accessor_buffer_object_2_POSITION_0",
            "type": "VEC3"
        },
        {
            "bufferView": 1,
            "byteOffset": 0,
            "componentType": 5126,
            "count": 5159,
            "max": [
                1.0,
                1.0,
                1.0
            ],
            "min": [
                -1.0,
                -1.0,
                -1.0
            ],
            "name": "accessor_buffer_object_1_NORMAL_0",
            "type": "VEC3"
        },
        {
            "bufferView": 5,
            "byteOffset": 0,
            "componentType": 5126,
            "count": 186,
            "max": [
                1.0,
                1.0,
                1.0
            ],
            "min": [
                -1.0,
                -1.0,
                -0.7727116346359253
            ],
            "name": "accessor_buffer_object_2_NORMAL_0",
            "type": "VEC3"
        },
        {
            "bufferView": 3,
            "byteOffset": 0,
            "componentType": 5123,
            "count": 23976,
            "max": [
                5158
            ],
            "min": [
                0
            ],
            "name": "accessor_buffer_object_1_0",
            "type": "SCALAR"
        },
        {
            "bufferView": 6,
            "byteOffset": 0,
            "componentType": 5126,
            "count": 186,
            "max": [
                0.99853515625,
                1.0
            ],
            "min": [
                0.0,
                0.00146484375
            ],
            "name": "accessor_buffer_object_2_TEXCOORD_0_0",
            "type": "VEC2"
        },
        {
            "bufferView": 7,
            "byteOffset": 0,
            "componentType": 5123,
            "count": 384,
            "max": [
                185
            ],
            "min": [
                0
            ],
            "name": "accessor_buffer_object_2_0",
            "type": "SCALAR"
        },
        {
            "bufferView": 2,
            "byteOffset": 0,
            "componentType": 5126,
            "count": 5159,
            "max": [
                0.9810527563095093,
                1.0
            ],
            "min": [
                0.0,
                0.05521470308303833
            ],
            "name": "accessor_buffer_object_1_TEXCOORD_0_0",
            "type": "VEC2"
        },
        {
            "bufferView": 0,
            "byteOffset": 0,
            "componentType": 5126,
            "count": 5159,
            "max": [
                10.374663352966309,
                3.1750543117523193,
                14.306396484375
            ],
            "min": [
                -10.374919891357422,
                -3.1750543117523193,
                -10.180495262145996
            ],
            "name": "accessor_buffer_object_1_POSITION_0",
            "type": "VEC3"
        }
    ],
    "asset": {
        "copyright": "",
        "generator": "blendergltf v1.2.0",
        "version": "2.0"
    },
    "bufferViews": [
        {
            "buffer": 0,
            "byteLength": 61908,
            "byteOffset": 0,
            "byteStride": 12,
            "name": "bufferView_buffer_object_1_POSITION_0",
            "target": 34962
        },
        {
            "buffer": 0,
            "byteLength": 61908,
            "byteOffset": 61908,
            "byteStride": 12,
            "name": "bufferView_buffer_object_1_NORMAL_0",
            "target": 34962
        },
        {
            "buffer": 0,
            "byteLength": 41272,
            "byteOffset": 123816,
            "byteStride": 8,
            "name": "bufferView_buffer_object_1_TEXCOORD_0_0",
            "target": 34962
        },
        {
            "buffer": 0,
            "byteLength": 47956,
            "byteOffset": 165088,
            "name": "bufferView_buffer_object_1_0",
            "target": 34963
        },
        {
            "buffer": 0,
            "byteLength": 2232,
            "byteOffset": 213044,
            "byteStride": 12,
            "name": "bufferView_buffer_object_2_POSITION_0",
            "target": 34962
        },
        {
            "buffer": 0,
            "byteLength": 2232,
            "byteOffset": 215276,
            "byteStride": 12,
            "name": "bufferView_buffer_object_2_NORMAL_0",
            "target": 34962
        },
        {
            "buffer": 0,
            "byteLength": 1488,
            "byteOffset": 217508,
            "byteStride": 8,
            "name": "bufferView_buffer_object_2_TEXCOORD_0_0",
            "target": 34962
        },
        {
            "buffer": 0,
            "byteLength": 772,
            "byteOffset": 218996,
            "name": "bufferView_buffer_object_2_0",
            "target": 34963
        }
    ],
    "buffers": [
        {
            "byteLength": 219768,
            "name": "buffer_ring",
            "uri": "buffer_ring.bin"
        }
    ],
    "cameras": [
        {
            "name": "Camera",
            "perspective": {
                "aspectRatio": 1.703595982340029,
                "yfov": 0.5033799409866333,
                "zfar": 100.0,
                "znear": 0.10000000149011612
            },
            "type": "perspective"
        }
    ],
    "meshes": [
        {
            "name": "object_1",
            "primitives": [
                {
                    "attributes": {
                        "NORMAL": 1,
                        "POSITION": 7,
                        "TEXCOORD_0": 6
                    },
                    "indices": 3,
                    "mode": 4
                }
            ]
        },
        {
            "name": "object_2",
            "primitives": [
                {
                    "attributes": {
                        "NORMAL": 2,
                        "POSITION": 0,
                        "TEXCOORD_0": 4
                    },
                    "indices": 5,
                    "mode": 4
                }
            ]
        }
    ],
    "nodes": [
        {
            "camera": 0,
            "name": "Camera",
            "rotation": [
                -0.09062843769788742,
                -0.8937962651252747,
                -0.2099730223417282,
                0.38578000664711
            ],
            "scale": [
                1.0,
                1.0,
                1.0
            ],
            "translation": [
                -7.481131553649902,
                5.34366512298584,
                -6.5076398849487305
            ]
        },
        {
            "name": "Lamp",
            "rotation": [
                -0.34203386306762695,
                -0.5232755541801453,
                -0.2841663062572479,
                0.7269423007965088
            ],
            "scale": [
                1.0,
                1.0,
                0.9999999403953552
            ],
            "translation": [
                -4.076245307922363,
                5.903861999511719,
                1.0054539442062378
            ]
        },
        {
            "mesh": 0,
            "name": "object_1",
            "rotation": [
                -0.7071068286895752,
                0.0,
                0.0,
                0.7071067094802856
            ],
            "scale": [
                1.0,
                1.0,
                1.0
            ],
            "translation": [
                0.0,
                0.0,
                0.0
            ]
        },
        {
            "mesh": 1,
            "name": "object_2",
            "rotation": [
                -0.7071068286895752,
                0.0,
                0.0,
                0.7071067094802856
            ],
            "scale": [
                1.0,
                1.0,
                1.0
            ],
            "translation": [
                0.0,
                0.0,
                0.0
            ]
        }
    ],
    "scene": 0,
    "scenes": [
        {
            "extras": {
                "active_camera": 0,
                "background_color": [
                    0.05087608844041824,
                    0.05087608844041824,
                    0.05087608844041824
                ],
                "frames_per_second": 24
            },
            "name": "Scene",
            "nodes": [
                3,
                2,
                1,
                0
            ]
        }
    ]
}
